<svg width="317" height="317" viewBox="0 0 317 317" fill="none" xmlns="http://www.w3.org/2000/svg">
<path d="M241.312 182.221L316.52 160.581L160.181 316.71L181.839 241.562C185.904 227.444 193.496 214.591 203.899 204.211C214.303 193.83 227.177 186.264 241.312 182.221Z" fill="#00AEEF"/>
<path d="M134.887 75.8815L156.544 0.47998L0.289978 156.947L75.1599 135.222C89.338 131.21 102.26 123.657 112.71 113.276C123.159 102.894 130.791 90.0252 134.887 75.8815Z" fill="#00AEEF"/>
<path d="M134.887 241.562L156.544 316.71L0.289978 160.581L75.1599 182.221C89.338 186.233 102.26 193.786 112.71 204.168C123.159 214.549 130.791 227.418 134.887 241.562Z" fill="#00AEEF"/>
<path d="M241.312 135.222L316.52 156.947L160.181 0.47998L181.839 75.6279C185.867 89.7925 193.442 102.698 203.848 113.125C214.253 123.552 227.147 131.157 241.312 135.222Z" fill="#00AEEF"/>
</svg>
